<svg width="1065" height="1114" viewBox="0 0 1065 1114" fill="none" xmlns="http://www.w3.org/2000/svg">
<path d="M915 0H150C67.1573 0 0 67.1573 0 150V752C0 834.843 67.1573 902 150 902H270C296.51 902 318 923.49 318 950V968.5C318 1048.58 382.919 1113.5 463 1113.5C543.081 1113.5 608 1048.58 608 968.5V962C608 928.863 634.863 902 668 902H915C997.843 902 1065 834.843 1065 752V150C1065 67.1573 997.843 0 915 0Z" fill="white"/>
<path fill-rule="evenodd" clip-rule="evenodd" d="M933.259 71H180V307.5L897 305.738V248.534C897 239.364 907.803 234.466 914.7 240.51C924.109 248.755 931.529 259.053 936.038 270.723C940.495 282.261 945.012 294.703 948.286 305.612L980.31 305.534C987.754 305.515 993.62 299.267 992.762 291.873C991.222 278.61 987.964 258.529 981.5 245C976.315 234.149 972.253 228.592 965 219C961.224 214.006 955.735 207.88 951.627 203.446C948.704 200.292 949.173 195.252 952.682 192.767L968.084 181.857C984.339 170.343 994 151.661 994 131.741C994 98.1946 966.805 71 933.259 71ZM921 165C938.673 165 953 150.673 953 133C953 115.327 938.673 101 921 101C903.327 101 889 115.327 889 133C889 150.673 903.327 165 921 165Z" fill="#6100FF"/>
<path fill-rule="evenodd" clip-rule="evenodd" d="M905 288H245V488H905C954.706 488 995 447.706 995 398V378C995 328.294 954.706 288 905 288ZM916 420C933.673 420 948 405.673 948 388C948 370.327 933.673 356 916 356C898.327 356 884 370.327 884 388C884 405.673 898.327 420 916 420Z" fill="#5200FF"/>
<path fill-rule="evenodd" clip-rule="evenodd" d="M905 460H245V660H905C954.706 660 995 619.706 995 570V550C995 500.294 954.706 460 905 460ZM910 592C927.673 592 942 577.673 942 560C942 542.327 927.673 528 910 528C892.327 528 878 542.327 878 560C878 577.673 892.327 592 910 592Z" fill="#2257E0"/>
<path fill-rule="evenodd" clip-rule="evenodd" d="M941.535 816.5C936.807 816.249 933 812.332 933 807.487V805.5V795.005C933 786.634 923.33 781.968 916.778 787.176L900.514 800.104C896.853 803.014 891.663 802.998 888.02 800.064L872.272 787.384C865.729 782.116 856 786.773 856 795.172V806V808.445C856 812.655 852.81 816.05 848.812 816.5H847H209C203.477 816.5 199 812.023 199 806.5V621.5C199 615.977 203.477 611.5 209 611.5H789.677C812.347 611.5 834.475 618.442 853.083 631.392L885.623 654.038C893.328 659.401 903.588 659.283 911.168 653.745L958.432 619.215C973.629 608.113 995 618.967 995 637.787V806.5C995 812.023 990.523 816.5 985 816.5H942.5H941.535Z" fill="url(#paint0_linear_15_9)"/>
<path d="M70.0001 739.5L70.0006 172.5C70.0006 145.5 82 73.9833 163 69.9997C224 66.9997 257.5 127.499 257.5 158V586C257.5 623.5 270.8 649 306 649C341.2 649 352.5 614 352.5 587.5C352.5 441.833 352 164.8 352 158C352 144 368 68.0001 449 70C519.308 71.7359 539.5 135 539.5 166.5V615C539.5 644.6 554.167 649 569.5 647.5H590.5C639.7 649.9 643 683.5 643 703V756.5C643 811.7 614.136 808.054 590.5 814.5C579.5 817.5 571.667 821.5 555 839C525 870.5 545 941 538.5 974C532 1007 511 1041 466 1044C421 1047 391.5 1008.5 391.5 974C391.5 974 393.693 876 363 850C340.57 831 267 831 267 831H157C89.5 831 67.0004 771 70.0001 739.5Z" fill="#130A43"/>
<defs>
<linearGradient id="paint0_linear_15_9" x1="597" y1="687" x2="597" y2="939" gradientUnits="userSpaceOnUse">
<stop stop-color="#1874E0"/>
<stop offset="1" stop-color="#1874E0" stop-opacity="0.19"/>
</linearGradient>
</defs>
</svg>
