<svg xmlns="http://www.w3.org/2000/svg" width="1065" height="1114" fill="none"><path fill="#fff" d="M915 0H150C67.157 0 0 67.157 0 150v602c0 82.843 67.157 150 150 150h120c26.51 0 48 21.49 48 48v18.5c0 80.08 64.919 145 145 145s145-64.92 145-145V962c0-33.137 26.863-60 60-60h247c82.843 0 150-67.157 150-150V150c0-82.843-67.157-150-150-150Z"/><path fill="#6100FF" fill-rule="evenodd" d="M933.259 71H180v236.5l717-1.762v-57.204c0-9.17 10.803-14.068 17.7-8.024 9.409 8.245 16.829 18.543 21.338 30.213 4.457 11.538 8.974 23.98 12.248 34.889l32.024-.078c7.444-.019 13.31-6.267 12.452-13.661-1.54-13.263-4.798-33.344-11.262-46.873-5.185-10.851-9.247-16.408-16.5-26-3.776-4.994-9.265-11.12-13.373-15.554-2.923-3.154-2.454-8.194 1.055-10.679l15.402-10.91A61.414 61.414 0 0 0 994 131.741C994 98.195 966.805 71 933.259 71ZM921 165c17.673 0 32-14.327 32-32 0-17.673-14.327-32-32-32-17.673 0-32 14.327-32 32 0 17.673 14.327 32 32 32Z" clip-rule="evenodd"/><path fill="#5200FF" fill-rule="evenodd" d="M905 288H245v200h660c49.706 0 90-40.294 90-90v-20c0-49.706-40.294-90-90-90Zm11 132c17.673 0 32-14.327 32-32 0-17.673-14.327-32-32-32-17.673 0-32 14.327-32 32 0 17.673 14.327 32 32 32Z" clip-rule="evenodd"/><path fill="#2257E0" fill-rule="evenodd" d="M905 460H245v200h660c49.706 0 90-40.294 90-90v-20c0-49.706-40.294-90-90-90Zm5 132c17.673 0 32-14.327 32-32 0-17.673-14.327-32-32-32-17.673 0-32 14.327-32 32 0 17.673 14.327 32 32 32Z" clip-rule="evenodd"/><path fill="url(#a)" fill-rule="evenodd" d="M941.535 816.5c-4.728-.251-8.535-4.168-8.535-9.013v-12.482c0-8.371-9.67-13.037-16.222-7.829l-16.264 12.928a10 10 0 0 1-12.494-.04l-15.748-12.68c-6.543-5.268-16.272-.611-16.272 7.788v13.273c0 4.21-3.19 7.605-7.188 8.055H209c-5.523 0-10-4.477-10-10v-185c0-5.523 4.477-10 10-10h580.677c22.67 0 44.798 6.942 63.406 19.892l32.54 22.646a22 22 0 0 0 25.545-.293l47.264-34.53c15.197-11.102 36.568-.248 36.568 18.572V806.5c0 5.523-4.477 10-10 10h-43.465Z" clip-rule="evenodd"/><path fill="#130A43" d="M70 739.5v-567c0-27 12-98.517 93-102.5 61-3 94.5 57.499 94.5 88v428c0 37.5 13.3 63 48.5 63s46.5-35 46.5-61.5c0-145.667-.5-422.7-.5-429.5 0-14 16-90 97-88 70.308 1.736 90.5 65 90.5 96.5V615c0 29.6 14.667 34 30 32.5h21c49.2 2.4 52.5 36 52.5 55.5v53.5c0 55.2-28.864 51.554-52.5 58-11 3-18.833 7-35.5 24.5-30 31.5-10 102-16.5 135s-27.5 67-72.5 70-74.5-35.5-74.5-70c0 0 2.193-98-28.5-124-22.43-19-96-19-96-19H157c-67.5 0-90-60-87-91.5Z"/><defs><linearGradient id="a" x1="597" x2="597" y1="687" y2="939" gradientUnits="userSpaceOnUse"><stop stop-color="#1874E0"/><stop offset="1" stop-color="#1874E0" stop-opacity=".19"/></linearGradient></defs></svg>